{
  "source": "C:\\Users\\Peter\\Desktop\\stuff\\MIUN\\quantitative_research\\video_compression\\videos\\BVI-HD\\BVI-HD_CDVL_videos\\ORIG\\BallUnderWater_1920x1080_60fps.mp4",
  "output": "C:\\Users\\Peter\\Desktop\\stuff\\MIUN\\quantitative_research\\video_compression\\compressed_videos\\BVI-HD\\vp9\\1\\BallUnderWater_1920x1080_60fps_vp9.webm",
  "codec": "vp9",
  "ok": "Input #0, mov,mp4,m4a,3gp,3g2,mj2, from 'C:\\Users\\Peter\\Desktop\\stuff\\MIUN\\quantitative_research\\video_compression\\videos\\BVI-HD\\BVI-HD_CDVL_videos\\ORIG\\BallUnderWater_1920x1080_60fps.mp4':\n  Metadata:\n    major_brand     : isom\n    minor_version   : 512\n    compatible_brands: isomiso2avc1mp41\n    encoder         : Lavf54.28.101\n  Duration: 00:00:05.00, start: 0.000000, bitrate: 212030 kb/s\n  Stream #0:0[0x1](und): Video: h264 (High 4:4:4 Predictive) (avc1 / 0x31637661), yuv420p(progressive), 1920x1080, 212025 kb/s, 60 fps, 60 tbr, 60 tbn (default)\n    Metadata:\n      handler_name    : VideoHandler\n      vendor_id       : [0][0][0][0]\n[out#0/webm @ 000002d274f9a040] Codec AVOption b:a (set bitrate (in bits/s)) has not been used for any stream. The most likely reason is either wrong type (e.g. a video option with no video streams) or that it is a private option of some decoder which was not actually used for any stream.\nStream mapping:\n  Stream #0:0 -> #0:0 (h264 (native) -> vp9 (libvpx-vp9))\nPress [q] to stop, [?] for help\n[libvpx-vp9 @ 000002d274e54b00] v1.15.2-100-g40561f514\nOutput #0, webm, to 'C:\\Users\\Peter\\Desktop\\stuff\\MIUN\\quantitative_research\\video_compression\\compressed_videos\\BVI-HD\\vp9\\1\\BallUnderWater_1920x1080_60fps_vp9.webm':\n  Metadata:\n    major_brand     : isom\n    minor_version   : 512\n    compatible_brands: isomiso2avc1mp41\n    encoder         : Lavf62.3.100\n  Stream #0:0(und): Video: vp9, yuv420p(tv, progressive), 1920x1080, q=2-31, 1000 kb/s, 60 fps, 1k tbn (default)\n    Metadata:\n      encoder         : Lavc62.11.100 libvpx-vp9\n      handler_name    : VideoHandler\n      vendor_id       : [0][0][0][0]\n    Side data:\n      cpb: bitrate max/min/avg: 0/0/0 buffer size: 1000000 vbv_delay: N/A\nframe=    0 fps=0.0 q=0.0 size=       0KiB time=N/A bitrate=N/A speed=N/A elapsed=0:00:00.51    \nframe=    0 fps=0.0 q=0.0 size=       0KiB time=N/A bitrate=N/A speed=N/A elapsed=0:00:01.27    \nframe=    2 fps=1.0 q=63.0 size=       1KiB time=00:00:00.03 bitrate= 151.9kbits/s speed=0.0172x elapsed=0:00:01.94    \nframe=    4 fps=1.4 q=63.0 size=       1KiB time=00:00:00.06 bitrate=  76.0kbits/s speed=0.024x elapsed=0:00:02.77    \nframe=    7 fps=2.0 q=61.0 size=       1KiB time=00:00:00.11 bitrate=  43.4kbits/s speed=0.0332x elapsed=0:00:03.50    \nframe=   11 fps=2.7 q=60.0 size=       1KiB time=00:00:00.16 bitrate=  30.4kbits/s speed=0.0405x elapsed=0:00:04.11    \nframe=   14 fps=2.8 q=60.0 size=       1KiB time=00:00:00.23 bitrate=  21.7kbits/s speed=0.0475x elapsed=0:00:04.91    \nframe=   17 fps=3.1 q=60.0 size=       1KiB time=00:00:00.28 bitrate=  17.9kbits/s speed=0.0522x elapsed=0:00:05.42    \nframe=   19 fps=3.2 q=60.0 size=       1KiB time=00:00:00.31 bitrate=  16.0kbits/s speed=0.0533x elapsed=0:00:05.94    \nframe=   22 fps=3.4 q=60.0 size=       1KiB time=00:00:00.36 bitrate=  13.8kbits/s speed=0.0568x elapsed=0:00:06.45    \nframe=   24 fps=3.4 q=60.0 size=       1KiB time=00:00:00.40 bitrate=  12.7kbits/s speed=0.0574x elapsed=0:00:06.97    \nframe=   25 fps=3.3 q=47.0 size=       1KiB time=00:00:00.41 bitrate=  12.2kbits/s speed=0.0556x elapsed=0:00:07.48    \nframe=   27 fps=3.4 q=61.0 size=       1KiB time=00:00:00.45 bitrate=  11.3kbits/s speed=0.0562x elapsed=0:00:08.00    \nframe=   28 fps=3.3 q=61.0 size=       1KiB time=00:00:00.46 bitrate=  10.9kbits/s speed=0.0548x elapsed=0:00:08.52    \nframe=   30 fps=3.3 q=62.0 size=       1KiB time=00:00:00.50 bitrate=  10.1kbits/s speed=0.0554x elapsed=0:00:09.03    \nframe=   31 fps=3.2 q=62.0 size=       1KiB time=00:00:00.51 bitrate=   9.8kbits/s speed=0.0541x elapsed=0:00:09.55    \nframe=   34 fps=3.4 q=63.0 size=       1KiB time=00:00:00.56 bitrate=   8.9kbits/s speed=0.0563x elapsed=0:00:10.06    \nframe=   36 fps=3.4 q=63.0 size=       1KiB time=00:00:00.60 bitrate=   8.4kbits/s speed=0.0567x elapsed=0:00:10.57    \nframe=   37 fps=3.3 q=50.0 size=       1KiB time=00:00:00.61 bitrate=   8.2kbits/s speed=0.0556x elapsed=0:00:11.09    \nframe=   39 fps=3.4 q=62.0 size=       1KiB time=00:00:00.65 bitrate=   7.8kbits/s speed=0.0559x elapsed=0:00:11.61    \nframe=   41 fps=3.4 q=62.0 size=       1KiB time=00:00:00.68 bitrate=   7.4kbits/s speed=0.0564x elapsed=0:00:12.12    \nframe=   42 fps=3.3 q=62.0 size=       1KiB time=00:00:00.70 bitrate=   7.2kbits/s speed=0.0554x elapsed=0:00:12.64    \nframe=   45 fps=3.4 q=62.0 size=       1KiB time=00:00:00.75 bitrate=   6.8kbits/s speed=0.057x elapsed=0:00:13.15    \nframe=   46 fps=3.4 q=62.0 size=       1KiB time=00:00:00.76 bitrate=   6.6kbits/s speed=0.0561x elapsed=0:00:13.67    \nframe=   47 fps=3.3 q=62.0 size=       1KiB time=00:00:00.78 bitrate=   6.5kbits/s speed=0.0552x elapsed=0:00:14.19    \nframe=   49 fps=3.3 q=48.0 size=       1KiB time=00:00:00.81 bitrate=   6.2kbits/s speed=0.0555x elapsed=0:00:14.70    \nframe=   50 fps=3.3 q=62.0 size=       1KiB time=00:00:00.83 bitrate=   6.1kbits/s speed=0.0548x elapsed=0:00:15.21    \nframe=   52 fps=3.3 q=61.0 size=       1KiB time=00:00:00.86 bitrate=   5.8kbits/s speed=0.0551x elapsed=0:00:15.73    \nframe=   54 fps=3.3 q=60.0 size=       1KiB time=00:00:00.90 bitrate=   5.6kbits/s speed=0.0554x elapsed=0:00:16.25    \nframe=   57 fps=3.4 q=60.0 size=       1KiB time=00:00:00.95 bitrate=   5.3kbits/s speed=0.0566x elapsed=0:00:16.77    \nframe=   59 fps=3.4 q=60.0 size=       1KiB time=00:00:00.98 bitrate=   5.1kbits/s speed=0.0569x elapsed=0:00:17.27    \nframe=   60 fps=3.4 q=60.0 size=       1KiB time=00:00:01.00 bitrate=   5.1kbits/s speed=0.0562x elapsed=0:00:17.79    \nframe=   62 fps=3.4 q=57.0 size=       1KiB time=00:00:01.03 bitrate=   4.9kbits/s speed=0.0564x elapsed=0:00:18.31    \nframe=   64 fps=3.4 q=58.0 size=       1KiB time=00:00:01.06 bitrate=   4.7kbits/s speed=0.0566x elapsed=0:00:18.83    \nframe=   65 fps=3.4 q=58.0 size=       1KiB time=00:00:01.08 bitrate=   4.7kbits/s speed=0.056x elapsed=0:00:19.35    \nframe=   67 fps=3.4 q=58.0 size=       1KiB time=00:00:01.11 bitrate=   4.5kbits/s speed=0.0562x elapsed=0:00:19.86    \nframe=   69 fps=3.4 q=58.0 size=       1KiB time=00:00:01.15 bitrate=   4.4kbits/s speed=0.0564x elapsed=0:00:20.37    \nframe=   70 fps=3.4 q=58.0 size=       1KiB time=00:00:01.16 bitrate=   4.3kbits/s speed=0.0558x elapsed=0:00:20.88    \nframe=   72 fps=3.4 q=58.0 size=       1KiB time=00:00:01.20 bitrate=   4.2kbits/s speed=0.0561x elapsed=0:00:21.40    \nframe=   74 fps=3.4 q=61.0 size=       1KiB time=00:00:01.23 bitrate=   4.1kbits/s speed=0.0563x elapsed=0:00:21.91    \nframe=   76 fps=3.4 q=59.0 size=       1KiB time=00:00:01.26 bitrate=   4.0kbits/s speed=0.0565x elapsed=0:00:22.43    \nframe=   77 fps=3.4 q=59.0 size=       1KiB time=00:00:01.28 bitrate=   3.9kbits/s speed=0.0559x elapsed=0:00:22.95    \nframe=   79 fps=3.4 q=44.0 size=       1KiB time=00:00:01.31 bitrate=   3.8kbits/s speed=0.0561x elapsed=0:00:23.47    \nframe=   81 fps=3.4 q=55.0 size=       1KiB time=00:00:01.35 bitrate=   3.8kbits/s speed=0.0563x elapsed=0:00:23.98    \nframe=   83 fps=3.4 q=56.0 size=       1KiB time=00:00:01.38 bitrate=   3.7kbits/s speed=0.0564x elapsed=0:00:24.50    \nframe=   85 fps=3.4 q=57.0 size=       1KiB time=00:00:01.41 bitrate=   3.6kbits/s speed=0.0566x elapsed=0:00:25.01    \nframe=   86 fps=3.4 q=57.0 size=       1KiB time=00:00:01.43 bitrate=   3.5kbits/s speed=0.0561x elapsed=0:00:25.53    \nframe=   88 fps=3.4 q=58.0 size=       1KiB time=00:00:01.46 bitrate=   3.5kbits/s speed=0.0563x elapsed=0:00:26.05    \nframe=   90 fps=3.4 q=60.0 size=       1KiB time=00:00:01.50 bitrate=   3.4kbits/s speed=0.0565x elapsed=0:00:26.55    \nframe=   92 fps=3.4 q=63.0 size=       1KiB time=00:00:01.53 bitrate=   3.3kbits/s speed=0.0566x elapsed=0:00:27.08    \nframe=   94 fps=3.4 q=62.0 size=       1KiB time=00:00:01.56 bitrate=   3.2kbits/s speed=0.0568x elapsed=0:00:27.58    \nframe=   96 fps=3.4 q=62.0 size=       1KiB time=00:00:01.60 bitrate=   3.2kbits/s speed=0.0569x elapsed=0:00:28.10    \nframe=   97 fps=3.4 q=47.0 size=       1KiB time=00:00:01.61 bitrate=   3.1kbits/s speed=0.0565x elapsed=0:00:28.62    \nframe=  100 fps=3.4 q=61.0 size=       1KiB time=00:00:01.66 bitrate=   3.0kbits/s speed=0.0572x elapsed=0:00:29.14    \nframe=  102 fps=3.4 q=61.0 size=       1KiB time=00:00:01.70 bitrate=   3.0kbits/s speed=0.0573x elapsed=0:00:29.66    \nframe=  105 fps=3.5 q=60.0 size=       1KiB time=00:00:01.75 bitrate=   2.9kbits/s speed=0.058x elapsed=0:00:30.17    \nframe=  108 fps=3.5 q=60.0 size=       1KiB time=00:00:01.80 bitrate=   2.8kbits/s speed=0.0586x elapsed=0:00:30.69    \nframe=  111 fps=3.6 q=60.0 size=       1KiB time=00:00:01.85 bitrate=   2.7kbits/s speed=0.0593x elapsed=0:00:31.19    \nframe=  113 fps=3.6 q=61.0 size=       1KiB time=00:00:01.88 bitrate=   2.7kbits/s speed=0.0594x elapsed=0:00:31.72    \nframe=  115 fps=3.6 q=48.0 size=       1KiB time=00:00:01.91 bitrate=   2.6kbits/s speed=0.0594x elapsed=0:00:32.24    \nframe=  118 fps=3.6 q=60.0 size=       1KiB time=00:00:01.96 bitrate=   2.6kbits/s speed=0.0601x elapsed=0:00:32.75    \nframe=  120 fps=3.6 q=60.0 size=       1KiB time=00:00:02.00 bitrate=   2.5kbits/s speed=0.0601x elapsed=0:00:33.27    \nframe=  123 fps=3.6 q=58.0 size=       1KiB time=00:00:02.05 bitrate=   2.5kbits/s speed=0.0607x elapsed=0:00:33.79    \nframe=  126 fps=3.7 q=58.0 size=       1KiB time=00:00:02.10 bitrate=   2.4kbits/s speed=0.0612x elapsed=0:00:34.29    \nframe=  128 fps=3.7 q=59.0 size=       1KiB time=00:00:02.13 bitrate=   2.4kbits/s speed=0.0613x elapsed=0:00:34.81    \nframe=  130 fps=3.7 q=61.0 size=     218KiB time=00:00:02.16 bitrate= 825.2kbits/s speed=0.0613x elapsed=0:00:35.33    \nframe=  132 fps=3.7 q=61.0 size=     218KiB time=00:00:02.20 bitrate= 812.7kbits/s speed=0.0614x elapsed=0:00:35.84    \nframe=  134 fps=3.7 q=61.0 size=     218KiB time=00:00:02.23 bitrate= 800.6kbits/s speed=0.0614x elapsed=0:00:36.36    \nframe=  137 fps=3.7 q=60.0 size=     218KiB time=00:00:02.28 bitrate= 783.0kbits/s speed=0.0619x elapsed=0:00:36.87    \nframe=  139 fps=3.7 q=60.0 size=     218KiB time=00:00:02.31 bitrate= 771.8kbits/s speed=0.062x elapsed=0:00:37.39    \nframe=  140 fps=3.7 q=59.0 size=     218KiB time=00:00:02.33 bitrate= 766.3kbits/s speed=0.0616x elapsed=0:00:37.90    \nframe=  143 fps=3.7 q=58.0 size=     218KiB time=00:00:02.38 bitrate= 750.2kbits/s speed=0.062x elapsed=0:00:38.42    \nframe=  146 fps=3.7 q=58.0 size=     218KiB time=00:00:02.43 bitrate= 734.8kbits/s speed=0.0625x elapsed=0:00:38.94    \nframe=  146 fps=3.7 q=58.0 size=     218KiB time=00:00:02.43 bitrate= 734.8kbits/s speed=0.0617x elapsed=0:00:39.45    \nframe=  149 fps=3.7 q=58.0 size=     218KiB time=00:00:02.48 bitrate= 720.0kbits/s speed=0.0621x elapsed=0:00:39.97    \nframe=  151 fps=3.7 q=59.0 size=     218KiB time=00:00:02.51 bitrate= 710.4kbits/s speed=0.0622x elapsed=0:00:40.47    \nframe=  152 fps=3.7 q=59.0 size=     218KiB time=00:00:02.53 bitrate= 705.8kbits/s speed=0.0618x elapsed=0:00:41.00    \nframe=  154 fps=3.7 q=60.0 size=     218KiB time=00:00:02.56 bitrate= 696.6kbits/s speed=0.0618x elapsed=0:00:41.52    \nframe=  157 fps=3.7 q=59.0 size=     218KiB time=00:00:02.61 bitrate= 683.3kbits/s speed=0.0623x elapsed=0:00:42.03    \nframe=  158 fps=3.7 q=59.0 size=     218KiB time=00:00:02.63 bitrate= 679.0kbits/s speed=0.0619x elapsed=0:00:42.55    \nframe=  160 fps=3.7 q=56.0 size=     218KiB time=00:00:02.66 bitrate= 670.5kbits/s speed=0.0619x elapsed=0:00:43.05    \nframe=  163 fps=3.7 q=57.0 size=     218KiB time=00:00:02.71 bitrate= 658.1kbits/s speed=0.0623x elapsed=0:00:43.58    \nframe=  166 fps=3.8 q=58.0 size=     218KiB time=00:00:02.76 bitrate= 646.2kbits/s speed=0.0627x elapsed=0:00:44.09    \nframe=  169 fps=3.8 q=57.0 size=     218KiB time=00:00:02.81 bitrate= 634.8kbits/s speed=0.0631x elapsed=0:00:44.61    \nframe=  171 fps=3.8 q=57.0 size=     218KiB time=00:00:02.85 bitrate= 627.3kbits/s speed=0.0632x elapsed=0:00:45.12    \nframe=  173 fps=3.8 q=57.0 size=     218KiB time=00:00:02.88 bitrate= 620.1kbits/s speed=0.0632x elapsed=0:00:45.64    \nframe=  176 fps=3.8 q=57.0 size=     218KiB time=00:00:02.93 bitrate= 609.5kbits/s speed=0.0635x elapsed=0:00:46.16    \nframe=  179 fps=3.8 q=56.0 size=     218KiB time=00:00:02.98 bitrate= 599.3kbits/s speed=0.0639x elapsed=0:00:46.67    \nframe=  181 fps=3.8 q=55.0 size=     218KiB time=00:00:03.01 bitrate= 592.7kbits/s speed=0.0639x elapsed=0:00:47.19    \nframe=  185 fps=3.9 q=56.0 size=     218KiB time=00:00:03.08 bitrate= 579.9kbits/s speed=0.0646x elapsed=0:00:47.70    \nframe=  187 fps=3.9 q=56.0 size=     218KiB time=00:00:03.11 bitrate= 573.7kbits/s speed=0.0646x elapsed=0:00:48.22    \nframe=  187 fps=3.8 q=56.0 size=     218KiB time=00:00:03.11 bitrate= 573.7kbits/s speed=0.064x elapsed=0:00:48.73    \nframe=  190 fps=3.9 q=56.0 size=     218KiB time=00:00:03.16 bitrate= 564.6kbits/s speed=0.0643x elapsed=0:00:49.25    \nframe=  192 fps=3.9 q=58.0 size=     218KiB time=00:00:03.20 bitrate= 558.7kbits/s speed=0.0643x elapsed=0:00:49.77    \nframe=  194 fps=3.9 q=42.0 size=     218KiB time=00:00:03.23 bitrate= 553.0kbits/s speed=0.0643x elapsed=0:00:50.28    \nframe=  197 fps=3.9 q=60.0 size=     218KiB time=00:00:03.28 bitrate= 544.6kbits/s speed=0.0646x elapsed=0:00:50.80    \nframe=  199 fps=3.9 q=60.0 size=     218KiB time=00:00:03.31 bitrate= 539.1kbits/s speed=0.0646x elapsed=0:00:51.31    \nframe=  201 fps=3.9 q=61.0 size=     218KiB time=00:00:03.35 bitrate= 533.7kbits/s speed=0.0646x elapsed=0:00:51.83    \nframe=  204 fps=3.9 q=60.0 size=     218KiB time=00:00:03.40 bitrate= 525.9kbits/s speed=0.065x elapsed=0:00:52.34    \nframe=  207 fps=3.9 q=60.0 size=     218KiB time=00:00:03.45 bitrate= 518.2kbits/s speed=0.0653x elapsed=0:00:52.86    \nframe=  210 fps=3.9 q=62.0 size=     218KiB time=00:00:03.50 bitrate= 510.8kbits/s speed=0.0656x elapsed=0:00:53.38    \nframe=  212 fps=3.9 q=47.0 size=     218KiB time=00:00:03.53 bitrate= 506.0kbits/s speed=0.0656x elapsed=0:00:53.89    \nframe=  215 fps=4.0 q=63.0 size=     218KiB time=00:00:03.58 bitrate= 499.0kbits/s speed=0.0659x elapsed=0:00:54.41    \nframe=  217 fps=4.0 q=63.0 size=     218KiB time=00:00:03.61 bitrate= 494.4kbits/s speed=0.0659x elapsed=0:00:54.92    \nframe=  219 fps=3.9 q=63.0 size=     218KiB time=00:00:03.65 bitrate= 489.8kbits/s speed=0.0658x elapsed=0:00:55.44    \nframe=  221 fps=3.9 q=62.0 size=     218KiB time=00:00:03.68 bitrate= 485.4kbits/s speed=0.0658x elapsed=0:00:55.95    \nframe=  223 fps=3.9 q=62.0 size=     218KiB time=00:00:03.71 bitrate= 481.1kbits/s speed=0.0658x elapsed=0:00:56.47    \nframe=  227 fps=4.0 q=61.0 size=     218KiB time=00:00:03.78 bitrate= 472.6kbits/s speed=0.0664x elapsed=0:00:57.01    \nframe=  229 fps=4.0 q=61.0 size=     218KiB time=00:00:03.81 bitrate= 468.5kbits/s speed=0.0663x elapsed=0:00:57.57    \nframe=  231 fps=4.0 q=61.0 size=     218KiB time=00:00:03.85 bitrate= 464.4kbits/s speed=0.0662x elapsed=0:00:58.14    \nframe=  234 fps=4.0 q=61.0 size=     218KiB time=00:00:03.90 bitrate= 458.4kbits/s speed=0.0665x elapsed=0:00:58.67    \nframe=  238 fps=4.0 q=60.0 size=     218KiB time=00:00:03.96 bitrate= 450.7kbits/s speed=0.067x elapsed=0:00:59.19    \nframe=  241 fps=4.0 q=59.0 size=     218KiB time=00:00:04.01 bitrate= 445.1kbits/s speed=0.0672x elapsed=0:00:59.74    \nframe=  245 fps=4.1 q=60.0 size=     218KiB time=00:00:04.08 bitrate= 437.9kbits/s speed=0.0677x elapsed=0:01:00.27    \nframe=  247 fps=4.1 q=61.0 size=     218KiB time=00:00:04.11 bitrate= 434.3kbits/s speed=0.0677x elapsed=0:01:00.78    \nframe=  250 fps=4.1 q=58.0 size=     218KiB time=00:00:04.16 bitrate= 429.1kbits/s speed=0.068x elapsed=0:01:01.30    \nframe=  253 fps=4.1 q=58.0 size=     218KiB time=00:00:04.21 bitrate= 424.0kbits/s speed=0.0682x elapsed=0:01:01.80    \nframe=  257 fps=4.1 q=45.0 size=     218KiB time=00:00:04.28 bitrate= 417.4kbits/s speed=0.0687x elapsed=0:01:02.33    \nframe=  262 fps=4.2 q=60.0 size=     256KiB time=00:00:04.36 bitrate= 480.3kbits/s speed=0.0695x elapsed=0:01:02.86    \nframe=  265 fps=4.2 q=59.0 size=     256KiB time=00:00:04.41 bitrate= 474.8kbits/s speed=0.0697x elapsed=0:01:03.38    \nframe=  268 fps=4.2 q=60.0 size=     256KiB time=00:00:04.46 bitrate= 469.5kbits/s speed=0.0699x elapsed=0:01:03.90    \nframe=  270 fps=4.2 q=58.0 size=     256KiB time=00:00:04.50 bitrate= 466.0kbits/s speed=0.0698x elapsed=0:01:04.43    \nframe=  273 fps=4.2 q=59.0 size=     256KiB time=00:00:04.55 bitrate= 460.9kbits/s speed=0.0701x elapsed=0:01:04.94    \nframe=  276 fps=4.2 q=59.0 size=     256KiB time=00:00:04.60 bitrate= 455.9kbits/s speed=0.0703x elapsed=0:01:05.47    \nframe=  276 fps=4.2 q=59.0 size=     256KiB time=00:00:04.60 bitrate= 455.9kbits/s speed=0.0697x elapsed=0:01:05.98    \nframe=  276 fps=4.1 q=59.0 size=     256KiB time=00:00:04.60 bitrate= 455.9kbits/s speed=0.0691x elapsed=0:01:06.52    \nframe=  276 fps=4.1 q=59.0 size=     256KiB time=00:00:04.60 bitrate= 455.9kbits/s speed=0.0686x elapsed=0:01:07.06    \nframe=  276 fps=4.1 q=59.0 size=     256KiB time=00:00:04.60 bitrate= 455.9kbits/s speed=0.0681x elapsed=0:01:07.58    \nframe=  276 fps=4.1 q=59.0 size=     256KiB time=00:00:04.60 bitrate= 455.9kbits/s speed=0.0675x elapsed=0:01:08.10    \nframe=  276 fps=4.0 q=59.0 size=     256KiB time=00:00:04.60 bitrate= 455.9kbits/s speed=0.067x elapsed=0:01:08.63    \nframe=  276 fps=4.0 q=59.0 size=     256KiB time=00:00:04.60 bitrate= 455.9kbits/s speed=0.0665x elapsed=0:01:09.15    \nframe=  276 fps=4.0 q=59.0 size=     256KiB time=00:00:04.60 bitrate= 455.9kbits/s speed=0.066x elapsed=0:01:09.67    \n[out#0/webm @ 000002d274f9a040] video:536KiB audio:0KiB subtitle:0KiB other streams:0KiB global headers:0KiB muxing overhead: 0.514934%\nframe=  300 fps=4.3 q=59.0 Lsize=     539KiB time=00:00:05.00 bitrate= 882.3kbits/s speed=0.0713x elapsed=0:01:10.15    \n",
  "seconds": 72.87763476371765,
  "probe_out": {}
}